<svg xmlns="http://www.w3.org/2000/svg" viewBox="0 0 541 541"><title>Asset 2</title><g id="Layer_2" data-name="Layer 2"><g id="Layer_1-2" data-name="Layer 1"><path d="M311.88,213.83q-5.89-5.14-18.49-5.15h-14v43h10.12q14.17,0,21.21-5.6t7-16.31Q317.78,219,311.88,213.83Zm111.38-5.15H406.91v94.38h13.18q44.41,0,44.42-47.69Q464.51,208.67,423.26,208.68Z"/><path d="M270.5,0C121.11,0,0,121.11,0,270.5S121.11,541,270.5,541,541,419.89,541,270.5,419.89,0,270.5,0ZM212.2,328.44H183.55V259.83c0-3.23,0-7,.14-11.2s.55-15.47,1.34-33.71h-.89L146.76,328.44H118.61L83.71,214.72h-.89Q84.7,249.43,84.7,261v67.42H57.24V183.5H99.08l34.3,110.83h.6L170.36,183.5H212.2Zm122-64q-14.62,12.41-41.59,12.4H279.41v51.55H248.68V183.5H295q26.37,0,40.1,11.35t13.73,33.85Q348.81,252.1,334.19,264.49ZM476.06,309.4q-20.39,19-58.84,19h-41V183.5h45.51q35.49,0,55.12,18.73t19.63,52.35Q496.43,290.37,476.06,309.4Z"/></g></g></svg>